<svg width="552" height="570" viewBox="0 0 552 570" fill="none" xmlns="http://www.w3.org/2000/svg">
<path opacity="0.08" fill-rule="evenodd" clip-rule="evenodd" d="M68.241 131.627C0.811279 106.161 -26.9875 -2.7786 -98.9938 0.439277C-155.669 2.97203 -156.505 94.8705 -186.521 143.012C-217.75 193.099 -292.604 232.526 -279.591 290.099C-265.433 352.742 -165.195 351.083 -127.706 403.229C-95.9287 447.43 -130.584 526.244 -86.6802 558.43C-44.1932 589.578 15.5693 545.872 68.241 546.88C122.269 547.913 174.133 577.266 226.623 564.424C286.047 549.884 383.13 531.577 380.621 470.451C377.219 387.569 551.664 362.972 551.922 280.02C552.182 196.649 399.177 190.627 381.745 109.097C367.124 40.7178 245.348 99.1306 175.603 104.143C138.118 106.837 103.399 144.904 68.241 131.627Z" fill="#FB8E00"/>
</svg>
