<svg width="625" height="875" viewBox="0 0 625 875" fill="none" xmlns="http://www.w3.org/2000/svg">
<path opacity="0.08" fill-rule="evenodd" clip-rule="evenodd" d="M174.491 9.49654C247.439 -18.4163 324.046 26.935 402.025 31.3843C490.381 36.4257 587.522 -12.1328 660.96 37.2532C736.236 87.8746 774.382 188.493 770.415 279.12C766.713 363.711 598.292 369.336 563.335 446.456C526.748 527.17 553.952 545.979 562.557 737.68C591.53 867.486 389.826 880.891 284.641 872.381C178.148 863.766 77.7515 788.716 27.5624 694.398C-18.2836 608.241 41.8414 506.491 38.0487 408.97C35.0116 330.88 -17.6138 256.244 7.64579 182.289C34.174 104.621 97.8369 38.8275 174.491 9.49654Z" fill="#FB8E00"/>
</svg>
