<svg width="448" height="696" viewBox="0 0 448 696" fill="none" xmlns="http://www.w3.org/2000/svg">
<path opacity="0.08" fill-rule="evenodd" clip-rule="evenodd" d="M162.552 22.1735C218.948 45.4821 223.857 128.36 274.638 162.198C323.969 195.068 415.702 155.885 442.542 208.74C468.917 260.678 385.504 309.841 379.008 367.728C372.16 428.752 424.997 488.448 404.652 546.387C382.217 610.274 330.738 669.087 266.101 689.262C201.296 709.491 134.148 673.855 70.312 650.749C10.0923 628.951 -52.445 607.642 -94.0058 558.916C-135.412 510.37 -174.381 444.48 -158.288 382.737C-141.844 319.644 -37.4683 316.734 -14.9369 255.55C10.9375 185.289 -75.9379 95.6327 -30.6128 36.0358C9.27274 -16.4088 101.66 -2.9937 162.552 22.1735Z" fill="#FB8E00"/>
</svg>
