<svg width="396" height="613" viewBox="0 0 396 613" fill="none" xmlns="http://www.w3.org/2000/svg">
<path opacity="0.1" fill-rule="evenodd" clip-rule="evenodd" d="M160.186 187.009C184.334 138.584 153.23 71.9299 190.195 32.0706C222.036 -2.2635 277.43 16.2618 321.875 12.6607C365.981 9.08699 416.839 -12.4254 452.379 10.8271C489.763 35.2859 481.197 97.2678 507.164 133.887C528.954 164.618 569.548 175.78 591.206 206.613C615.756 241.562 645.863 279.838 641.236 324.754C636.609 369.675 592.347 401.949 567.069 440.93C543.639 477.062 535.042 529.626 496.715 547.622C455.322 567.058 411.699 524.337 367.927 534.436C328.473 543.538 303.337 590.25 264.195 601.267C220.657 613.522 172.272 618.359 133.344 600.462C94.2328 582.48 73.5804 540.1 51.016 503.257C28.3481 466.246 -4.21448 429.004 0.463052 383.498C5.27568 336.677 45.3046 298.917 75.887 261.295C99.8338 231.836 143.328 220.815 160.186 187.009Z" fill="#FB8E00"/>
</svg>
