<svg width="536" height="607" viewBox="0 0 536 607" fill="none" xmlns="http://www.w3.org/2000/svg">
<path opacity="0.08" fill-rule="evenodd" clip-rule="evenodd" d="M243.165 1.122C298.639 -6.01029 354.462 21.8199 397.63 57.3814C438.366 90.9385 451.766 144.464 474.809 191.945C498.478 240.716 543.286 286.125 534.61 339.637C525.943 393.1 479.837 436.794 431.237 460.699C388.33 481.803 333.201 437.706 290.697 459.61C230.419 490.673 219.447 589.239 153.251 603.952C89.2691 618.173 22.5141 575.336 -24.4984 529.665C-73.3633 482.195 -113.67 416.485 -109.734 348.473C-105.906 282.334 -48.089 234.531 -4.52887 184.615C28.5325 146.73 71.8749 124.001 112.278 94.0695C156.165 61.5582 188.994 8.08686 243.165 1.122Z" fill="#FB8E00"/>
</svg>
