<svg width="26" height="27" viewBox="0 0 26 27" fill="none" xmlns="http://www.w3.org/2000/svg">
<path d="M11.375 22.756C12.2725 22.756 13 22.0284 13 21.131C13 20.2335 12.2725 19.506 11.375 19.506C10.4775 19.506 9.75 20.2335 9.75 21.131C9.75 22.0284 10.4775 22.756 11.375 22.756Z" fill="#FB8E00"/>
<path d="M18.9583 22.756C19.8557 22.756 20.5833 22.0284 20.5833 21.131C20.5833 20.2335 19.8557 19.506 18.9583 19.506C18.0608 19.506 17.3333 20.2335 17.3333 21.131C17.3333 22.0284 18.0608 22.756 18.9583 22.756Z" fill="#FB8E00"/>
<path d="M14.0834 14.0893H16.2501V10.8501H19.4892V8.68347H16.2501V5.45514H14.0834V8.68347H10.8442V10.8501H14.0834V14.0893Z" fill="#FB8E00"/>
<path d="M10.8334 18.4227H19.5001C19.7183 18.422 19.9313 18.3555 20.111 18.2318C20.2908 18.108 20.429 17.9329 20.5076 17.7293L23.5734 9.75599H21.2551L18.7526 16.256H11.5592L6.69508 4.58849C6.53016 4.19314 6.25175 3.85555 5.89503 3.61837C5.5383 3.3812 5.11928 3.25509 4.69091 3.25599H2.16675V5.42265H4.69091L9.83675 17.751C9.91802 17.9488 10.056 18.1182 10.2334 18.2377C10.4108 18.3572 10.6195 18.4216 10.8334 18.4227Z" fill="#FB8E00"/>
</svg>
