<svg width="24" height="23" viewBox="0 0 24 23" fill="none" xmlns="http://www.w3.org/2000/svg">
<path d="M17.3553 11.2738C18.718 11.2738 20.0249 11.8152 20.9884 12.7787C21.952 13.7423 22.4933 15.0492 22.4933 16.4118C22.4933 17.7745 21.952 19.0814 20.9884 20.045C20.0249 21.0085 18.718 21.5498 17.3553 21.5498C15.9926 21.5498 14.6858 21.0085 13.7222 20.045C12.7586 19.0814 12.2173 17.7745 12.2173 16.4118C12.2173 15.0492 12.7586 13.7423 13.7222 12.7787C14.6858 11.8152 15.9926 11.2738 17.3553 11.2738ZM17.3553 13.1422L17.2712 13.1487C17.1779 13.1658 17.092 13.2109 17.0249 13.2779C16.9578 13.345 16.9128 13.431 16.8957 13.5243L16.8882 13.6093V15.9447H14.5509L14.4668 15.9522C14.3735 15.9693 14.2876 16.0143 14.2205 16.0814C14.1534 16.1485 14.1083 16.2344 14.0913 16.3278L14.0838 16.4118L14.0913 16.4959C14.1083 16.5892 14.1534 16.6752 14.2205 16.7423C14.2876 16.8093 14.3735 16.8544 14.4668 16.8715L14.5509 16.8789H16.8882V19.2172L16.8957 19.3013C16.9128 19.3946 16.9578 19.4805 17.0249 19.5476C17.092 19.6147 17.1779 19.6598 17.2712 19.6768L17.3553 19.6843L17.4394 19.6768C17.5327 19.6598 17.6186 19.6147 17.6857 19.5476C17.7528 19.4805 17.7979 19.3946 17.8149 19.3013L17.8224 19.2172V16.8789L20.1616 16.8799L20.2457 16.8724C20.339 16.8553 20.4249 16.8103 20.492 16.7432C20.5591 16.6761 20.6042 16.5902 20.6212 16.4968L20.6287 16.4128L20.6212 16.3287C20.6041 16.2352 20.5589 16.1492 20.4916 16.0821C20.4244 16.015 20.3382 15.97 20.2447 15.9532L20.1607 15.9457H17.8224V13.6102L17.8149 13.5261C17.7981 13.4326 17.7531 13.3465 17.686 13.2793C17.6189 13.212 17.5329 13.1668 17.4394 13.1497L17.3553 13.1422ZM12.2379 13.1422C11.6128 14.118 11.2813 15.253 11.2831 16.4118C11.2831 17.2377 11.4475 18.0242 11.7465 18.7426C9.36058 18.6137 8.01349 17.6011 8.01349 15.7112V14.777C8.01349 13.8746 8.74589 13.1422 9.64831 13.1422H12.2379ZM8.59829 8.47128C8.43529 9.10559 8.44156 9.77155 8.61647 10.4027C8.79138 11.0338 9.12881 11.608 9.59506 12.0679L9.7464 12.209L9.64831 12.208C9.08764 12.2078 8.5423 12.391 8.09549 12.7297C7.64868 13.0684 7.32494 13.544 7.17366 14.0839L7.1419 14.0848C4.42343 14.0848 2.87549 13.0665 2.87549 11.0403V10.1061C2.8755 9.69582 3.02979 9.30054 3.30772 8.99873C3.58564 8.69692 3.96689 8.51065 4.37579 8.47689L4.51031 8.47128H8.59829ZM12.2173 6.60292C12.9606 6.60292 13.6734 6.89819 14.199 7.42377C14.7246 7.94935 15.0199 8.66219 15.0199 9.40547C15.0199 10.1487 14.7246 10.8616 14.199 11.3872C13.6734 11.9127 12.9606 12.208 12.2173 12.208C11.474 12.208 10.7612 11.9127 10.2356 11.3872C9.71003 10.8616 9.41477 10.1487 9.41477 9.40547C9.41477 8.66219 9.71003 7.94935 10.2356 7.42377C10.7612 6.89819 11.474 6.60292 12.2173 6.60292ZM19.9243 8.47128C20.8267 8.47128 21.5591 9.20368 21.5591 10.1061L21.5582 11.0048C21.5788 11.3228 21.5514 11.6422 21.4769 11.952C20.356 10.9134 18.8835 10.3373 17.3553 10.3397C16.8216 10.3391 16.2902 10.4089 15.7747 10.547C15.9907 9.8748 16.0121 9.15516 15.8363 8.47128H19.9243ZM7.07931 1.93201C7.82259 1.93201 8.53543 2.22727 9.06101 2.75285C9.58659 3.27843 9.88186 3.99127 9.88186 4.73455C9.88186 5.47784 9.58659 6.19068 9.06101 6.71626C8.53543 7.24183 7.82259 7.5371 7.07931 7.5371C6.33603 7.5371 5.62319 7.24183 5.09761 6.71626C4.57203 6.19068 4.27676 5.47784 4.27676 4.73455C4.27676 3.99127 4.57203 3.27843 5.09761 2.75285C5.62319 2.22727 6.33603 1.93201 7.07931 1.93201ZM17.3553 1.93201C18.0986 1.93201 18.8114 2.22727 19.337 2.75285C19.8626 3.27843 20.1579 3.99127 20.1579 4.73455C20.1579 5.47784 19.8626 6.19068 19.337 6.71626C18.8114 7.24183 18.0986 7.5371 17.3553 7.5371C16.612 7.5371 15.8992 7.24183 15.3736 6.71626C14.848 6.19068 14.5528 5.47784 14.5528 4.73455C14.5528 3.99127 14.848 3.27843 15.3736 2.75285C15.8992 2.22727 16.612 1.93201 17.3553 1.93201Z" fill="white"/>
</svg>
