<svg width="23" height="24" viewBox="0 0 23 24" fill="none" xmlns="http://www.w3.org/2000/svg">
<g clip-path="url(#clip0_280_1624)">
<path opacity="0.5" d="M0.0821533 7.35634H6.37099V1.0675H0.0821533V7.35634ZM7.95974 7.35634H14.2486V1.0675H7.95974V7.35634ZM15.8042 7.35634H22.1262V1.0675H15.8042V7.35634ZM0.0821533 15.2339H6.37099V8.94509H0.0821533V15.2339ZM7.95974 15.2339H14.2486V8.94509H7.95974V15.2339ZM15.8042 15.2339H22.1262V8.94509H15.8042V15.2339ZM0.0821533 23.1115H6.37099V16.7896H0.0821533V23.1115ZM7.95974 23.1115H14.2486V16.7896H7.95974V23.1115ZM15.8042 23.1115H22.1262V16.7896H15.8042V23.1115Z" fill="#823AFF"/>
</g>
<defs>
<clipPath id="clip0_280_1624">
<rect width="22.044" height="22.5074" fill="white" transform="translate(0.0820923 0.604065)"/>
</clipPath>
</defs>
</svg>
