<svg width="16" height="16" viewBox="0 0 16 16" fill="none" xmlns="http://www.w3.org/2000/svg">
<path fill-rule="evenodd" clip-rule="evenodd" d="M7.77998 0.159651C7.58394 0.271989 6.96448 0.849254 6.96448 0.919584C6.96448 1.00606 10.87 4.91937 10.9563 4.91937C10.9997 4.91937 11.2013 4.74206 11.4044 4.52535C11.7285 4.17957 11.7737 4.09403 11.7737 3.82677C11.7737 3.53951 11.7338 3.4807 11.0703 2.7903C10.6834 2.38773 9.98477 1.66083 9.51784 1.17497C8.49433 0.110036 8.18359 -0.0715449 7.77998 0.159651ZM4.38328 3.57652L2.41313 5.56552L2.84044 6.02508C3.07552 6.27779 3.96401 7.19381 4.81482 8.06065L6.36189 9.63665L6.91574 9.06569L7.4696 8.49472L10.7163 11.7816C12.502 13.5893 14.0698 15.1354 14.2003 15.2172C14.5194 15.4173 15.1623 15.3792 15.4947 15.1403C15.9558 14.809 16.1246 14.1757 15.8979 13.6282C15.8229 13.4472 14.7243 12.2842 12.5106 10.0425L9.23431 6.72468L9.80309 6.14735L10.3719 5.57001L8.39951 3.57884C7.3147 2.48363 6.41056 1.5876 6.39024 1.5876C6.36993 1.5876 5.46679 2.48262 4.38328 3.57652ZM1.32976 6.5644C1.00187 6.92814 0.970858 6.99311 0.970858 7.31651V7.67047L2.58555 9.30101C4.21761 10.9491 4.47422 11.1476 4.82652 11.0348C5.01752 10.9736 5.742 10.3475 5.74329 10.2425C5.7443 10.1665 1.78628 6.14474 1.72405 6.1585C1.70459 6.16277 1.52715 6.34544 1.32976 6.5644ZM1.7407 12.7421C1.47762 12.904 1.36565 13.1345 1.36565 13.5142C1.36565 13.7089 1.42422 13.8294 1.6097 14.0165L1.85375 14.2628H1.24362C0.64548 14.2628 0.628683 14.2677 0.389441 14.5091C0.11438 14.7866 0.0656417 15.1285 0.249901 15.488C0.476941 15.931 0.452895 15.9287 4.80872 15.9287C7.60096 15.9287 8.81461 15.9046 8.92522 15.8472C9.55531 15.5198 9.65135 14.791 9.1153 14.4058C8.95386 14.2898 8.79638 14.2624 8.28136 14.2609C7.66477 14.259 7.65185 14.2556 7.83496 14.1408C8.22709 13.8953 8.35622 13.4361 8.14763 13.0291C7.92856 12.6016 7.8921 12.5969 4.79673 12.5972C2.10391 12.5974 1.96508 12.604 1.7407 12.7421Z" fill="#823AFF"/>
</svg>
