<svg width="19" height="19" viewBox="0 0 19 19" fill="none" xmlns="http://www.w3.org/2000/svg">
<path fill-rule="evenodd" clip-rule="evenodd" d="M18.1721 9.36943C18.1721 14.3224 14.157 18.3376 9.20399 18.3376C4.25102 18.3376 0.23584 14.3224 0.23584 9.36943C0.23584 4.41645 4.25102 0.401276 9.20399 0.401276C14.157 0.401276 18.1721 4.41645 18.1721 9.36943ZM9.20401 6.00637C8.79048 6.00637 8.4278 6.2297 8.23228 6.56769C7.92227 7.10361 7.23651 7.28674 6.70059 6.97673C6.16468 6.66672 5.98154 5.98096 6.29155 5.44505C6.87135 4.44275 7.95779 3.76433 9.20401 3.76433C11.0614 3.76433 12.5671 5.27003 12.5671 7.12739C12.5671 8.59169 11.6312 9.83741 10.325 10.2991V10.4904C10.325 11.1096 9.82313 11.6115 9.20401 11.6115C8.58489 11.6115 8.08299 11.1096 8.08299 10.4904V9.36943C8.08299 8.75031 8.58489 8.24841 9.20401 8.24841C9.82313 8.24841 10.325 7.74651 10.325 7.12739C10.325 6.50827 9.82313 6.00637 9.20401 6.00637ZM9.20399 14.9745C9.82311 14.9745 10.325 14.4726 10.325 13.8535C10.325 13.2344 9.82311 12.7325 9.20399 12.7325C8.58487 12.7325 8.08297 13.2344 8.08297 13.8535C8.08297 14.4726 8.58487 14.9745 9.20399 14.9745Z" fill="#823AFF"/>
</svg>
