<svg width="41" height="41" viewBox="0 0 41 41" fill="none" xmlns="http://www.w3.org/2000/svg">
<g clip-path="url(#clip0_636_1154)">
<g filter="url(#filter0_i_636_1154)">
<path d="M40.4714 20.4327C40.4714 9.38704 31.5171 0.432739 20.4714 0.432739C9.42574 0.432739 0.471436 9.38704 0.471436 20.4327C0.471436 31.4784 9.42574 40.4327 20.4714 40.4327C31.5171 40.4327 40.4714 31.4784 40.4714 20.4327Z" fill="#4CD964"/>
</g>
<path fill-rule="evenodd" clip-rule="evenodd" d="M20.8414 11.0064C14.4832 11.0064 9.33545 15.1092 9.33545 20.1679C9.33545 21.9908 10.0066 23.6889 11.1572 25.1139C11.2112 25.1673 11.331 25.3395 11.373 25.4048C11.373 25.4048 11.313 25.3098 11.307 25.292C11.4449 25.4879 11.5228 25.7136 11.5228 25.957C11.5228 26.0401 10.4501 29.4008 10.4501 29.4008C10.3722 29.662 10.5759 29.9292 10.9055 29.9945C10.9535 30.0064 11.0014 30.0064 11.0494 30.0064C11.1273 30.0064 11.1992 29.9945 11.2711 29.9767L11.367 29.9411L14.3993 28.6348C14.4532 28.6111 14.9386 28.427 14.9985 28.4033L15.0345 28.3914C15.0345 28.3914 15.0285 28.3914 14.9985 28.4033C15.2023 28.332 15.43 28.2964 15.6697 28.2964C15.8855 28.2964 16.0952 28.3261 16.287 28.3854C16.293 28.3854 16.299 28.3854 16.299 28.3914C16.3289 28.4033 16.3589 28.4092 16.3889 28.4211C17.7732 28.8901 19.2893 29.0326 20.8894 29.0326C27.2416 29.0326 32.3354 25.2267 32.3354 20.1679C32.3474 15.1092 27.1937 11.0064 20.8414 11.0064Z" fill="white"/>
</g>
<defs>
<filter id="filter0_i_636_1154" x="0.471436" y="0.432739" width="40" height="42" filterUnits="userSpaceOnUse" color-interpolation-filters="sRGB">
<feFlood flood-opacity="0" result="BackgroundImageFix"/>
<feBlend mode="normal" in="SourceGraphic" in2="BackgroundImageFix" result="shape"/>
<feColorMatrix in="SourceAlpha" type="matrix" values="0 0 0 0 0 0 0 0 0 0 0 0 0 0 0 0 0 0 127 0" result="hardAlpha"/>
<feOffset dy="2"/>
<feGaussianBlur stdDeviation="2"/>
<feComposite in2="hardAlpha" operator="arithmetic" k2="-1" k3="1"/>
<feColorMatrix type="matrix" values="0 0 0 0 0 0 0 0 0 0 0 0 0 0 0 0 0 0 0.25 0"/>
<feBlend mode="normal" in2="shape" result="effect1_innerShadow_636_1154"/>
</filter>
<clipPath id="clip0_636_1154">
<rect width="40" height="40" fill="white" transform="translate(0.471436 0.432739)"/>
</clipPath>
</defs>
</svg>
