<svg width="19" height="25" viewBox="0 0 19 25" fill="none" xmlns="http://www.w3.org/2000/svg">
<path fill-rule="evenodd" clip-rule="evenodd" d="M15.0192 0.98882C15.4162 1.38582 15.4309 1.70669 15.0729 2.16183L14.8009 2.50764H8.57656H2.35232V11.4879V20.4683L2.0065 20.7402C1.55242 21.0974 1.23062 21.0836 0.83717 20.6901L0.514978 20.368L0.515242 11.2737C0.515373 1.2278 0.482038 1.64081 1.34467 1.00772C1.70584 0.742748 1.8771 0.735005 8.20436 0.69957L14.6934 0.663086L15.0192 0.98882ZM17.9411 4.56323C18.178 4.68003 18.5028 4.95917 18.6629 5.18359L18.954 5.59174L18.9911 14.6472C19.0114 19.6277 18.9957 23.8348 18.9562 23.9962C18.8593 24.3914 18.3109 24.7351 17.9298 24.6395C17.7626 24.5975 16.3343 23.6403 14.756 22.5123C13.1779 21.3843 11.8086 20.4314 11.7133 20.3949C11.618 20.3583 10.1963 21.2905 8.55385 22.4664C6.9114 23.6423 5.41778 24.6277 5.23457 24.6565C5.03325 24.688 4.77393 24.6052 4.57838 24.4469L4.25527 24.1852L4.21984 15.1102C4.18545 6.3146 4.19241 6.01722 4.44386 5.44869C4.64662 4.99014 4.82629 4.80641 5.26673 4.6064C5.79811 4.36532 6.16177 4.35075 11.6702 4.35088C16.7849 4.35088 17.5639 4.37726 17.9411 4.56323Z" fill="url(#paint0_linear_502_3940)"/>
<defs>
<linearGradient id="paint0_linear_502_3940" x1="-3.29076" y1="-1.00358" x2="28.8788" y2="15.2801" gradientUnits="userSpaceOnUse">
<stop offset="0.16133" stop-color="#823AFF"/>
<stop offset="0.851111" stop-color="#FB8E00"/>
</linearGradient>
</defs>
</svg>
