<svg width="25" height="25" viewBox="0 0 25 25" fill="none" xmlns="http://www.w3.org/2000/svg">
<path d="M21.73 12.62C21.73 11.42 20.77 10.46 19.57 10.58C19.09 10.58 18.49 10.82 18.13 11.18C16.45 10.1 14.53 9.37998 12.49 9.37998L13.45 4.81998L16.57 5.53998C16.57 6.37998 17.29 6.97998 18.13 6.97998C18.97 6.97998 19.57 6.25998 19.57 5.41998C19.57 4.57998 18.85 3.97998 18.01 3.97998C17.41 3.97998 16.93 4.33998 16.69 4.81998L13.33 3.97998H13.09C12.97 3.97998 12.97 4.09998 12.97 4.21998L11.77 9.37998C9.73 9.37998 7.81 9.97998 6.13 11.18C5.29 10.34 3.97 10.34 3.13 11.18C2.29 12.02 2.29 13.34 3.13 14.18C3.25 14.3 3.49 14.54 3.73 14.54V15.14C3.73 18.38 7.45 21.02 12.13 21.02C16.81 21.02 20.53 18.38 20.53 15.14V14.54C21.25 14.18 21.73 13.46 21.73 12.62ZM7.33 14.18C7.33 13.34 8.05 12.74 8.77 12.74C9.61 12.74 10.21 13.46 10.21 14.18C10.21 14.9 9.49 15.62 8.77 15.62C7.93 15.62 7.33 15.02 7.33 14.18ZM15.73 18.14C14.65 18.86 13.45 19.34 12.13 19.22C10.81 19.22 9.61 18.86 8.53 18.14C8.41 18.02 8.41 17.78 8.53 17.54C8.65 17.42 8.89 17.42 9.01 17.54C9.85 18.14 10.93 18.5 12.01 18.38C13.09 18.5 14.17 18.14 15.01 17.54C15.13 17.42 15.37 17.42 15.61 17.54C15.85 17.66 15.85 17.9 15.73 18.14ZM15.37 15.62C14.53 15.62 13.93 14.9 13.93 14.18C13.93 13.46 14.65 12.74 15.37 12.74C16.21 12.74 16.81 13.46 16.81 14.18C16.93 15.02 16.21 15.62 15.37 15.62Z" fill="white"/>
</svg>
