<svg width="17" height="17" viewBox="0 0 17 17" fill="none" xmlns="http://www.w3.org/2000/svg">
<path d="M14.65 3.35002C13.4359 2.13226 11.8618 1.33808 10.1609 1.08521C8.46007 0.832344 6.72299 1.13424 5.20718 1.94616C3.69137 2.75807 2.47751 4.03679 1.74553 5.59277C1.01354 7.14876 0.802385 8.89918 1.14336 10.5846C1.48434 12.27 2.35931 13.8007 3.63856 14.9498C4.91782 16.0989 6.53327 16.8052 8.24548 16.964C9.95769 17.1229 11.6755 16.7258 13.1443 15.8317C14.6131 14.9375 15.7548 13.5939 16.4 12H14.18C13.5619 13.0917 12.6172 13.9622 11.4786 14.4891C10.3401 15.016 9.06506 15.1728 7.83282 14.9374C6.60057 14.7019 5.47311 14.0862 4.60899 13.1767C3.74487 12.2672 3.18757 11.1098 3.01546 9.8671C2.84334 8.62443 3.06507 7.35907 3.64947 6.24897C4.23387 5.13886 5.15153 4.23986 6.27341 3.67839C7.39528 3.11692 8.66493 2.92123 9.9038 3.11883C11.1427 3.31644 12.2884 3.8974 13.18 4.78002L9.99998 8.00002H17V1.00002L14.65 3.35002Z" fill="#823AFF"/>
</svg>
