<svg width="19" height="19" viewBox="0 0 19 19" fill="none" xmlns="http://www.w3.org/2000/svg">
<path opacity="0.54" d="M18.6158 16.29L15.2158 12.9C16.3127 11.5025 16.908 9.77666 16.9058 8C16.9058 6.41775 16.4366 4.87103 15.5575 3.55544C14.6785 2.23985 13.429 1.21447 11.9672 0.608967C10.5054 0.00346625 8.89689 -0.15496 7.34504 0.153721C5.7932 0.462403 4.36773 1.22433 3.24891 2.34315C2.13009 3.46197 1.36816 4.88743 1.05948 6.43928C0.750801 7.99113 0.909228 9.59966 1.51473 11.0615C2.12023 12.5233 3.14561 13.7727 4.4612 14.6518C5.7768 15.5308 7.32351 16 8.90577 16C10.6824 16.0022 12.4082 15.407 13.8058 14.31L17.1958 17.71C17.2887 17.8037 17.3993 17.8781 17.5212 17.9289C17.643 17.9797 17.7738 18.0058 17.9058 18.0058C18.0378 18.0058 18.1685 17.9797 18.2903 17.9289C18.4122 17.8781 18.5228 17.8037 18.6158 17.71C18.7095 17.617 18.7839 17.5064 18.8347 17.3846C18.8854 17.2627 18.9116 17.132 18.9116 17C18.9116 16.868 18.8854 16.7373 18.8347 16.6154C18.7839 16.4936 18.7095 16.383 18.6158 16.29ZM2.90577 8C2.90577 6.81332 3.25766 5.65328 3.91695 4.66658C4.57624 3.67989 5.51331 2.91085 6.60966 2.45673C7.70602 2.0026 8.91242 1.88378 10.0763 2.11529C11.2402 2.3468 12.3093 2.91825 13.1484 3.75736C13.9875 4.59648 14.559 5.66558 14.7905 6.82946C15.022 7.99335 14.9032 9.19975 14.449 10.2961C13.9949 11.3925 13.2259 12.3295 12.2392 12.9888C11.2525 13.6481 10.0925 14 8.90577 14C7.31447 14 5.78834 13.3679 4.66312 12.2426C3.53791 11.1174 2.90577 9.5913 2.90577 8Z" fill="black"/>
</svg>
