<svg width="41" height="41" viewBox="0 0 41 41" fill="none" xmlns="http://www.w3.org/2000/svg">
<g filter="url(#filter0_i_636_1162)">
<path d="M40.4714 20.4327C40.4714 9.38704 31.5171 0.432739 20.4714 0.432739C9.42574 0.432739 0.471436 9.38704 0.471436 20.4327C0.471436 31.4784 9.42574 40.4327 20.4714 40.4327C31.5171 40.4327 40.4714 31.4784 40.4714 20.4327Z" fill="#7936EE"/>
</g>
<path d="M12.8932 23.6292C13.8572 23.6265 14.7847 23.2786 15.491 22.6547L22.3905 26.4031C22.1593 27.262 22.2612 28.1714 22.6775 28.9646C23.0939 29.7579 23.7968 30.3821 24.6576 30.7229C25.5184 31.0637 26.4795 31.0984 27.3649 30.8205C28.2504 30.5426 29.001 29.9708 29.4793 29.2098C29.9576 28.4487 30.1316 27.5494 29.9695 26.6763C29.8073 25.8032 29.3199 25.0149 28.5964 24.4556C27.873 23.8963 26.9618 23.6034 26.0298 23.6307C25.0978 23.6579 24.2073 24.0034 23.5213 24.6038L16.6218 20.8554C16.6945 20.5934 16.7342 20.322 16.7408 20.0505L23.5191 16.3671C24.1718 16.9317 25.0088 17.2657 25.8898 17.313C26.7707 17.3604 27.6421 17.1183 28.3575 16.6273C29.073 16.1363 29.5891 15.4262 29.8193 14.6163C30.0494 13.8064 29.9796 12.9458 29.6216 12.179C29.2635 11.4122 28.639 10.7858 27.8528 10.4049C27.0666 10.024 26.1665 9.91179 25.3036 10.0871C24.4407 10.2623 23.6674 10.7144 23.1135 11.3675C22.5596 12.0206 22.2588 12.8349 22.2615 13.6739C22.2659 13.9757 22.3089 14.2764 22.3905 14.5677L16.1258 17.9704C15.7625 17.436 15.2592 17.0007 14.6655 16.7072C14.0717 16.4137 13.4078 16.2721 12.7391 16.2964C12.0703 16.3206 11.4197 16.5099 10.8512 16.8456C10.2826 17.1812 9.81572 17.6517 9.49631 18.2109C9.17689 18.77 9.01596 19.3986 9.02933 20.0348C9.0427 20.6709 9.22991 21.2929 9.57257 21.8394C9.91522 22.386 10.4015 22.8384 10.9837 23.1522C11.5659 23.466 12.2239 23.6304 12.8932 23.6292Z" fill="white"/>
<defs>
<filter id="filter0_i_636_1162" x="0.471436" y="0.432739" width="40" height="42" filterUnits="userSpaceOnUse" color-interpolation-filters="sRGB">
<feFlood flood-opacity="0" result="BackgroundImageFix"/>
<feBlend mode="normal" in="SourceGraphic" in2="BackgroundImageFix" result="shape"/>
<feColorMatrix in="SourceAlpha" type="matrix" values="0 0 0 0 0 0 0 0 0 0 0 0 0 0 0 0 0 0 127 0" result="hardAlpha"/>
<feOffset dy="2"/>
<feGaussianBlur stdDeviation="2"/>
<feComposite in2="hardAlpha" operator="arithmetic" k2="-1" k3="1"/>
<feColorMatrix type="matrix" values="0 0 0 0 0 0 0 0 0 0 0 0 0 0 0 0 0 0 0.25 0"/>
<feBlend mode="normal" in2="shape" result="effect1_innerShadow_636_1162"/>
</filter>
</defs>
</svg>
