<svg width="30" height="30" viewBox="0 0 30 30" fill="none" xmlns="http://www.w3.org/2000/svg">
<rect width="30" height="30" rx="15" fill="url(#paint0_linear_370_6119)"/>
<path d="M22.8881 8.9869C23.2396 9.33852 23.4371 9.81534 23.4371 10.3125C23.4371 10.8097 23.2396 11.2865 22.8881 11.6382L13.5131 21.0132C13.1615 21.3647 12.6847 21.5621 12.1875 21.5621C11.6903 21.5621 11.2135 21.3647 10.8618 21.0132L7.11184 17.2632C6.7703 16.9095 6.58131 16.4359 6.58558 15.9443C6.58985 15.4527 6.78704 14.9824 7.13469 14.6347C7.48233 14.2871 7.9526 14.0899 8.44422 14.0856C8.93584 14.0814 9.40947 14.2704 9.76309 14.6119L12.1875 17.0363L20.2368 8.9869C20.5885 8.63539 21.0653 8.43793 21.5625 8.43793C22.0597 8.43793 22.5365 8.63539 22.8881 8.9869Z" fill="white"/>
<defs>
<linearGradient id="paint0_linear_370_6119" x1="36.1765" y1="-2.08333" x2="-9.62674" y2="28.0186" gradientUnits="userSpaceOnUse">
<stop offset="0.16133" stop-color="#FB8E00"/>
<stop offset="0.851111" stop-color="#823AFF"/>
</linearGradient>
</defs>
</svg>
